<svg width="267" height="363" xmlns="http://www.w3.org/2000/svg"><g fill="none" fill-rule="evenodd"><path d="M116.237 31.481c-4.984 9.28-4.392 32.82 2.05 34.478 2.568.661 8.04-.96 13.609-4.313L128.4 86.352h20.64l-7.105-33.086c3.962-4.647 6.644-10.342 6.196-16.723-1.291-18.386-26.91-14.342-31.894-5.062Z" fill="#B28B67"/><path d="M124.39 21.374c2.82-.859 6.914-1.15 8.636-.953-.98-2.345-1.368-4.958-1.051-7.502.308-2.471 1.413-4.576 2.436-6.782.471-1.016 1.005-2.027 1.801-2.805.812-.792 1.839-1.315 2.915-1.564 1.102-.256 2.255-.234 3.358-.003.489.103.927.326 1.406.45.49.127.728-.18 1.084-.488.857-.742 2.115-1.109 3.2-1.24 1.217-.147 2.48.036 3.642.436 1.13.39 2.215 1.022 3.033 1.942.363.41.694.877.908 1.392.088.211.103.336.314.414.195.071.424.074.625.142 1.949.66 3.615 2.163 4.522 4.094.53 1.127.78 3.11.711 5.334-.068 2.224-2.078 8.025-3.958 10.141-1.677 1.889-4.143 3.135-6.523 3.681 1.58 1.804 2.631 4.058 3.409 6.35a31.05 31.05 0 0 1 1.56 7.714c.183 2.505.2 5.154-.387 7.605-.55 2.292-1.726 4.173-3.69 5.366-.898.547-1.866.957-2.839 1.332-.959.37-1.92.73-2.925.937-1.901.393-4.092.325-5.556-1.186-.528-.545-1.109-1.23-1.494-1.896-.138-.24-.222-.396-.054-.63.202-.28.528-.495.787-.714 1.476-1.25 2.39-2.92 2.62-4.903.234-2.012-.307-4.61-2.266-5.488-2.417-1.084-5.08.16-7.228 1.32-.914-3.22-2.789-6.119-5.729-7.596-3.252-1.634-6.984-1.825-10.326-3.227-.871-.366-1.758-.78-2.4-1.525-.267-.31-.582-.714-.689-1.126-.14-.54.209-.993.478-1.415 1.43-2.234 6.85-6.748 9.67-7.607Z" fill="#191847"/><path fill="#997659" d="m154.2 157.662-63.904 106.73-47.909 90.231H32.068l80.273-196.961z"/><path d="M48.806 350.75c.89 2.42 1.334 4.243 1.334 5.468 0 1.549-.258 3.81-.775 6.782H.859c-1.26-4.163-.532-6.41 2.183-6.742 2.716-.332 4.972-.632 6.768-.9l22.414-9.982a1 1 0 0 1 1.331.532l1.395 3.379c2.514 1.172 4.557 1.758 6.128 1.758 1.228 0 2.906-.477 5.033-1.43a2 2 0 0 1 2.695 1.136Z" fill="#E4E4E4"/><path d="m55.693 340.175-19.9-6.014c8.718-26.04 19.405-54.695 32.058-85.966 12.654-31.271 26.244-61.45 40.769-90.533h56.206c-16.15 36.79-33.27 70.218-51.36 100.285-18.092 30.067-37.35 57.476-57.773 82.228Z" fill="#DB2721"/><path d="M158.4 157.662c6.031 37.506 17.664 85.424 18.762 86.902.731.986 27.08 9.806 79.043 26.46l-2.23 9.092c-61.966-8.932-94.617-15.862-97.952-20.79-5.004-7.391-29.987-65.783-39.663-101.664h42.04Z" fill="#B28B67"/><path d="m237.939 263.167-3.927 14.64c-46.347 4.062-74.745 1.128-85.194-8.802-10.448-9.93-22.357-47.044-35.725-111.343h53.596c8.47 52.652 13.205 80.084 14.205 82.294 1 2.21 20.016 9.947 57.045 23.21Z" fill="#FF4133"/><path d="M253.963 267.158c2.537-.456 4.409-.577 5.615-.365 1.526.27 3.707.916 6.545 1.941l-8.423 47.769c-4.319.518-6.406-.588-6.261-3.32.145-2.733.241-5.006.29-6.822l-5.939-23.807a1 1 0 0 1 .755-1.218l3.57-.787c1.59-2.272 2.522-4.182 2.795-5.73.213-1.21.036-2.944-.533-5.204a2 2 0 0 1 1.586-2.457Z" fill="#E4E4E4"/><path d="M41.922 107.322c-3.727-.766-12.821-7.524-14.388-6.152-2.319 2.03-.252 8.263 2.184 11.363 4.552 5.795 8.321 7.776 17.637 10.371 4.87 1.357 10.137 4.077 15.798 8.159l.747-13.146-13.112-7.196c-1.84-6.993-4.04-10.512-6.598-10.556-1.965-.914 1.458 7.924-2.268 7.157Zm22.57-29.974c2.409 4.273 4.75 8.875 3.525 10.19-1.226 1.316-4.283-.524-5.745 1.662-.974 1.457 4.25 3.762 15.67 6.915l21.688 19.862 11.01-11.82L80.8 87.798c-4.964-5.894-9.855-10.473-14.671-13.735-1.472-.615-4.045-.988-1.637 3.284Z" fill="#997659"/><path d="M125.187 100.501c-10.455-.111-24.397-2.32-39.275-11.756l-5.84 13.015c10.262 10.176 24.692 18.537 37.308 18.185 9.942-.277 15.022-12.29 7.807-19.444Z" fill="#2026A2"/><path d="M124.492 67.45c-1.316 16.9-7.943 35.523-13.381 53.922-11.1 2.766-29.713-.495-55.842-9.784-6.48 13.395-9.477 22.944-8.988 28.648 22.417 11.698 41.63 16.913 57.458 17.256-.51 9.38.633 18.307 4.473 26.465 7.895 16.77 54.12 1.24 69.661 4.296 9.733-31.578-9.086-44.411-9.1-64.616-.017-22.128-17.802-56.186-20.418-56.186Z" fill="#1F28CF"/></g></svg>