<svg width="519" height="395" xmlns="http://www.w3.org/2000/svg"><g fill="none" fill-rule="evenodd"><path d="M134.857 52.203c6.44 8.773 9.217 32.933 2.855 35.557-2.537 1.046-8.378.177-14.567-2.45l7.134 24.763-21.153 2.973 2.527-34.862c-4.73-4.181-8.297-9.62-8.755-16.21-1.319-18.99 25.518-18.544 31.959-9.77Z" fill="#B28B67"/><path d="M125.049 43.04c-3.014-.472-7.251-.18-8.988.27.667-2.54.69-5.268 0-7.824-.672-2.484-2.107-4.477-3.472-6.585-.63-.972-1.322-1.93-2.25-2.61-.945-.693-2.072-1.08-3.212-1.18-1.166-.102-2.344.085-3.441.481-.486.175-.903.467-1.376.662-.484.2-.772-.079-1.181-.342-.986-.636-2.327-.83-3.458-.808-1.269.025-2.537.395-3.67.97-1.102.562-2.123 1.364-2.828 2.424-.314.471-.586.996-.732 1.554-.06.229-.056.359-.262.468-.19.102-.423.137-.62.236-1.902.955-3.393 2.733-4.045 4.839-.38 1.228-.353 3.293.037 5.557.39 2.264 3.284 7.908 5.514 9.802 1.99 1.69 4.697 2.61 7.215 2.825-1.36 2.072-2.114 4.529-2.581 6.985a32.011 32.011 0 0 0-.49 8.114c.172 2.588.535 5.3 1.49 7.722.893 2.266 2.368 4.02 4.551 4.957 1 .43 2.051.71 3.102.954 1.036.24 2.073.469 3.133.536 2.004.128 4.24-.256 5.523-2.013.463-.634.96-1.418 1.258-2.154.108-.265.17-.437-.035-.652-.247-.258-.612-.43-.909-.618-1.692-1.066-2.869-2.64-3.39-4.636-.529-2.025-.348-4.76 1.533-5.94 2.322-1.457 5.23-.567 7.598.31.473-3.425 1.978-6.66 4.778-8.594 3.099-2.14 6.896-2.873 10.12-4.788.84-.5 1.69-1.051 2.24-1.905.23-.357.493-.815.544-1.25.066-.574-.357-.987-.693-1.38-1.786-2.078-7.99-5.914-11.003-6.387Z" fill="#191847"/><path fill="#997659" d="m116.7 182.93 66.133 110.23 49.58 93.189h10.68l-83.073-203.42z"/><path d="M225.798 382.277c-.939 2.535-1.408 4.44-1.408 5.718 0 1.6.267 3.935.802 7.005h50.198c1.304-4.3.551-6.62-2.26-6.964a278.8 278.8 0 0 1-7.003-.928l-23.23-10.325a1 1 0 0 0-1.33.532l-1.457 3.522c-2.602 1.21-4.716 1.816-6.342 1.816-1.284 0-3.042-.502-5.275-1.506a2 2 0 0 0-2.695 1.13Z" fill="#E4E4E4"/><path d="m218.643 371.426 20.595-6.21c-9.023-26.894-20.082-56.489-33.177-88.785-13.095-32.297-27.159-63.464-42.191-93.501h-58.167c16.713 37.996 34.43 72.52 53.153 103.573 18.722 31.052 38.651 59.36 59.787 84.923Z" fill="#DB2721"/><path d="M112.354 182.93c-6.242 38.735-18.28 88.224-19.416 89.751-.758 1.018-28.025 10.128-81.801 27.328l2.307 9.389c64.128-9.225 97.918-16.382 101.37-21.47 5.178-7.635 31.032-67.941 41.046-104.998h-43.506Z" fill="#B28B67"/><path d="m30.04 291.893 4.064 15.122c47.964 4.194 77.352 1.163 88.165-9.092 10.814-10.255 23.138-48.586 36.972-114.993h-55.465c-8.766 54.378-13.666 82.709-14.701 84.992-1.036 2.282-20.714 10.273-59.035 23.971Z" fill="#FF4133"/><path d="M13.543 295.98c-2.66-.484-4.618-.615-5.876-.393-1.575.277-3.828.946-6.759 2.006l8.717 49.435c4.46.538 6.616-.607 6.465-3.434a278.8 278.8 0 0 1-.301-7.059l6.134-24.67a1 1 0 0 0-.755-1.217l-3.722-.823c-1.643-2.352-2.606-4.329-2.889-5.931-.223-1.264-.034-3.082.567-5.456a2 2 0 0 0-1.58-2.458Z" fill="#E4E4E4"/><path d="m77.649 181.098 18.424-2.527c-6.248 38.214-9.668 58.505-10.26 60.872-1.335 5.328 4.054 12.395 6.476 16.26-5.634 3.53-6.383-6.494-13.472-1.906-6.47 4.188-10.92 10.749-19.602 6.957-1.068-.466-2.464-2.591-.11-4.739 5.863-5.349 14.12-14.428 15.024-17.16 1.235-3.727 2.408-22.979 3.52-57.757Zm110.307-18.991 28.386 20.78c7.7 2.07 14.132 4.646 19.297 7.729 1.22 1.108 2.695 3.353-2.366 2.966-5.061-.388-10.402-.568-11.1 1.153-.699 1.721 2.363 3.78.951 6.101-.94 1.549-5.386-2.332-13.336-11.643l-28.11-11.618 6.278-15.468Z" fill="#B28B67"/><path d="m119.122 96.695 7.438-2.372c17.722 30.837 44.811 57.316 81.267 79.436l-20.493 33.39c-38.045-33.44-63.72-69.846-68.212-110.454Z" fill="#2F3676"/><path d="m99.336 196.858 67.863-9.537c-21.08-35.904-33.49-67.175-37.235-93.816l-20.898-.163c-12.463 28.058-12.542 60.457-9.73 103.516Z" fill="#DDE3E9"/><path d="M109.977 93.214c1.607-.17 4.056-.414 7.348-.73l6.927 13.398c2.938 17.11 10.86 51.309 23.767 102.598l-44.485 6.252c.622 3.58 1.324 7.183 2.107 10.81l-33.077 4.648c-2.874-56.348 9.144-101.943 36.052-136.785l.019.012.006-.016Z" fill="#2F3676"/><path d="m116.03 213.329-12.436 1.747c-2.811-16.052-4.008-31.644-3.59-46.774 4.418 22.24 9.76 37.25 16.026 45.027Z" fill-opacity=".1" fill="#000"/><path fill-opacity=".2" fill="#FFF" d="m109.656 186.447 20.507-13.25 1.429 10.167z"/><path d="M364.534 56.126c-3.95 10.141-.38 34.196 6.445 35.084 2.722.354 8.138-1.997 13.437-6.137l-.481 25.766 21.2-2.603-11.463-33.02c3.486-5.263 5.524-11.44 4.26-17.924-3.64-18.685-29.447-11.307-33.398-1.166Z" fill="#B28B67"/><path d="M375.272 43.678c2.738-.8 10.223-2.037 11.61-2.208.887-.108 1.873-.024 2.299-.9.348-.718.052-1.823.086-2.61.039-.914.142-1.825.248-2.733.3-2.586.929-5.087 1.943-7.488 1.902-4.504 5.041-8.235 9.28-10.701 4.68-2.724 10.21-3.896 15.577-4.119 5.743-.238 11.12 1.001 16.705 2.103 5.323 1.05 10.763 1.053 16.013-.424 5.29-1.487 9.007-4.9 13.215-8.224 4.308-3.403 9.4-5.908 14.957-6.158 5.186-.233 10.18 1.3 14.776 3.604 4.299 2.155 7.969 4.933 10.37 9.181 2.583 4.57 3.23 9.856.477 14.513-3.99 6.75-12.608 9.428-19.96 10.17a40.33 40.33 0 0 1-12.69-.744c-5.571-1.217-10.576-3.824-15.888-5.786-2.493-.92-5.039-1.616-7.667-2.019-2.55-.391-5.017-.412-7.067 1.347-2.168 1.86-4.095 3.663-6.675 4.978-2.476 1.262-5.155 2.126-7.919 2.444-5.376.618-10.876-.4-16.23-.877-4.367-.39-9.03-.739-13.26.67-1.765.588-4.315 1.667-4.739 3.623 11.246.637 17.233 13.671 15.354 24.01-1.014 5.58-10.305 13.1-14.565 10.754-2.698-1.485-1.482-4.02-.698-5.691 1.5-3.2 1.67-7.095-2.036-8.74-3.195-1.418-5.805 3.203-5.865 3.205-.826.036-8.385-3.082-13.97-8.3-4.77.874-5.886-2.195-5.056-4.92.83-2.724 7.592-6.854 11.375-7.96Z" fill="#191847"/><path d="M429.985 182.85c-1.57 21.879-104.653 86.153-105.252 87.96-.267.803 10.474 26.212 32.221 76.226l-9.014 3.496c-33.323-52.984-49.135-82.295-47.435-87.933 2.434-8.073 29.08-34.601 79.938-79.586l49.542-.163Z" fill="#B28B67"/><path d="m354.562 335.76-14.717 5.344c-31.099-35.113-43.31-64.065-41.112-78.805 1.465-9.826 28.02-36.31 79.662-79.453l52.643.074c-1.724 50.67-97.3 88.11-98.576 90.268-1.276 2.157 11.341 23.324 22.1 62.571Z" fill="#2F3676"/><path d="M360.255 345.33c1.75 2.06 2.842 3.69 3.279 4.89.547 1.505 1.094 3.79 1.642 6.858l-47.17 17.168c-2.697-3.594-2.783-6.033-.26-7.316a278.8 278.8 0 0 0 6.265-3.268l18.297-17.647a1 1 0 0 1 1.432.044l2.573 2.812c2.86.248 5.053.093 6.581-.463 1.206-.44 2.687-1.512 4.442-3.219a2 2 0 0 1 2.92.14Z" fill="#E4E4E4"/><path fill="#997659" d="m418.3 182.93 46.054 110.23 45.264 93.189h-10.68L382.1 182.929z"/><path d="M510.342 382.277c.939 2.535 1.408 4.44 1.408 5.718 0 1.6-.267 3.935-.802 7.005H460.75c-1.304-4.3-.551-6.62 2.26-6.964a278.8 278.8 0 0 0 7.003-.928l23.23-10.325a1 1 0 0 1 1.33.532l1.457 3.522c2.602 1.21 4.716 1.816 6.342 1.816 1.284 0 3.042-.502 5.275-1.506a2 2 0 0 1 2.695 1.13Z" fill="#E4E4E4"/><path d="m505.53 366.99-23.73 4.436c-18.347-26.893-95.131-137.163-103.55-188.496h52.827c28.114 37.108 56.964 156.722 74.453 184.06Z" fill="#5C63AB"/><path d="m466.827 154.3-17.662 5.804c22.357 31.589 34.32 48.317 35.89 50.184 3.534 4.201 1.788 12.91 1.305 17.443 6.61.703 2.891-8.63 11.27-7.615 7.65.927 14.522 4.87 20.663-2.34.755-.887 1.078-3.408-1.978-4.305-7.612-2.236-19.01-6.774-21.02-8.832-2.741-2.806-12.23-19.586-28.468-50.338Zm-182.366-5.093.42.476c3.208 3.66 6.253 7.528 5.334 9.054-.959 1.592-4.45.393-5.461 2.915-.675 1.681 5.11 2.883 17.353 3.606l26.222 15.38 8.618-14.308-33.73-10.085c-6.29-4.882-12.225-8.451-17.802-10.707-1.623-.304-4.309-.126-.954 3.669Z" fill="#B28B67"/><path d="m391.245 95.028-7.798-.367c-14.666 18.14-16.718 57.634-27.178 64.116-9.89 6.128-25.323 3.274-43.76-.874l-3.933 12.716c18.17 15.338 54.15 25.757 66.986 15.702 20.521-16.076 19.795-64.386 15.683-91.293Z" fill="#DB2721"/><path d="m436.285 186.658-67.588 8.299c-3.088.38-3.052-4.138-2.881-6.437 1.973-26.526 18.66-56.907 14.134-93.765l19.121-5.442c19.3 23.876 28.785 55.026 37.214 97.345Z" fill="#DDE3E9"/><path d="m396.81 89.59-4.2.516c-10.199 61.63-10.158 101.854.123 120.673l60.84-7.47c-2.74-14.359-7.707-29.29-13.768-43.698 16.822 23.089 30.594 39.507 41.317 49.256l13.827-4.506c-16.053-55.305-47.594-93.706-94.62-115.202l-3.52.432Z" fill="#FF4133"/></g></svg>