<svg width="270" height="321" xmlns="http://www.w3.org/2000/svg"><g fill="none" fill-rule="evenodd"><path d="M129.495 41.904c-5.041 9.394-4.442 33.221 2.074 34.9 2.598.67 8.133-.97 13.767-4.365L141.8 97.448h20.88l-7.187-33.493c4.008-4.704 6.721-10.468 6.268-16.927-1.307-18.612-27.224-14.518-32.266-5.124Z" fill="#B28B67"/><path d="M141.396 31.078c2.752-.452 10.162-.762 11.528-.762.874 0 1.82.2 2.337-.602.424-.656.269-1.766.395-2.528.147-.885.355-1.758.566-2.63.6-2.478 1.508-4.837 2.777-7.051 2.382-4.155 5.872-7.409 10.278-9.302 4.866-2.091 10.372-2.57 15.605-2.146 5.6.454 10.67 2.302 15.958 4.041 5.039 1.658 10.317 2.31 15.587 1.5 5.31-.815 9.322-3.692 13.8-6.422 4.586-2.796 9.826-4.624 15.246-4.204 5.06.393 9.723 2.481 13.907 5.27 3.915 2.611 7.145 5.752 8.968 10.172 1.962 4.754 1.96 9.973-1.266 14.175-4.676 6.09-13.356 7.665-20.578 7.509a39.33 39.33 0 0 1-12.224-2.24c-5.26-1.849-9.805-4.983-14.726-7.526-2.309-1.194-4.696-2.174-7.198-2.88-2.427-.685-4.819-1-7.017.467-2.325 1.55-4.409 3.074-7.07 4.045-2.551.932-5.254 1.453-7.973 1.432-5.29-.041-10.506-1.689-15.644-2.793-4.19-.9-8.672-1.796-12.944-.931-1.782.36-4.386 1.106-5.03 2.958 10.836 1.963 15.091 15.358 12.036 25.192-1.648 5.307-11.558 11.512-15.412 8.722-2.44-1.768-.959-4.089 0-5.62 1.837-2.935 2.466-6.703-.933-8.746-2.932-1.761-6.014 2.422-6.072 2.418-.806-.064-7.769-4-12.566-9.744-4.732.28-5.45-2.839-4.32-5.39 1.13-2.55 8.183-5.76 11.985-6.384Z" fill="#191847"/><ellipse cx="100.92" cy="50.877" rx="66.99" ry="63.922" transform="matrix(-1 0 0 1 272.3 206.159)" fill="#C5CFD6"/><path d="M55.596 202.245c-4.419 11.436-12.134 49.01-21.406 105.764l10.592 3.088c11.15-24.664 19.212-46.14 22.45-57.472 5.541-19.401 9.758-36.473 10.824-42.849 2.541-15.203-19.54-16.087-22.46-8.53Zm33.427 31.887c32.237 4.638 77.939 9.426 81.85 9.963 5.482.754 9.625-7.863 3.2-10.403-10.224-4.042-46.027-16.689-63.296-20.266a935.071 935.071 0 0 0-14.293-2.846c-13.44-2.565-20.406 21.69-7.461 23.552Z" fill="#B28B67"/><path d="M136.96 169.632c-53.52 13.633-80.868 22.37-82.046 26.21a2.69 2.69 0 0 0-.038.136c-.025.031-.049.063-.072.095-10.608 14.583-16.966 85.775-19.051 91.106l20.324 3.03c7.777-28.822 32.652-48.902 31.995-83.42.178-1.012.223-1.971.15-2.88l55.318-28.149v-6.128h-6.58Z" fill="#1F28CF"/><path d="M134.02 169.632c-7.753 2.226-48.051 19.12-68.96 28.105-13.847 5.95-9.47 27.412-1.624 32.974.043.34.184.57.434.674 42.14 17.467 75.479 8.297 86.615 11.225l5.153-16.255-16.69-5.725c5.06-1.013 9.72-1.916 13.707-2.616 25.764-4.517 33.277-18.303 28.835-48.382h-47.47Z" fill="#2B44FF"/><path d="M170.877 231.134c2.61.265 4.474.67 5.592 1.215 1.41.688 3.352 1.926 5.827 3.714l-21.51 44.104c-4.347-.701-6.07-2.36-5.167-4.977.902-2.616 1.63-4.8 2.183-6.553l.858-24.82a1 1 0 0 1 1.062-.964l3.705.232c2.18-1.766 3.62-3.363 4.317-4.792.546-1.12.857-2.865.932-5.233a2 2 0 0 1 2.201-1.926ZM49.961 306.794c.906 2.462 1.359 4.314 1.359 5.559 0 1.568-.261 3.856-.784 6.865H1.466c-1.275-4.214-.539-6.489 2.209-6.825 2.747-.336 5.03-.64 6.846-.91l22.685-10.11a1 1 0 0 1 1.332.532l1.415 3.432c2.543 1.186 4.61 1.78 6.2 1.78 1.246 0 2.95-.486 5.112-1.457a2 2 0 0 1 2.696 1.134Z" fill="#E4E4E4"/><path d="m217.048 149.629-17.828 3.536c17.929 33.4 27.544 51.103 28.845 53.107 2.927 4.509.196 12.773-.813 17.125 6.33 1.473 3.833-8.05 11.843-6.062 7.31 1.815 13.509 6.472 20.326.191.838-.772 1.451-3.186-1.406-4.424-7.12-3.084-17.637-8.86-19.343-11.102-2.325-3.058-9.533-20.515-21.624-52.371ZM40.716 122.89c2.803 4.093 5.568 8.524 4.448 9.959-1.12 1.434-4.365-.15-5.647 2.183-.854 1.555 4.615 3.415 16.407 5.58l23.61 18.096 10.066-12.89-31.524-13.84c-5.522-5.501-10.855-9.682-15.998-12.543-1.538-.49-4.165-.637-1.362 3.455Z" fill="#B28B67"/><path d="m150.767 82.95-7.523-1.29c-16.387 15.89-23.074 54.064-33.995 59.118-10.324 4.777-24.96.155-42.356-6.087l-5.328 11.9c15.806 17.094 49.48 31.535 63.13 23.29 21.823-13.183 26.862-60.265 26.072-86.93Z" fill="#DB2721"/><path d="M183.56 177.459h-66.565c-3.042 0-2.468-4.39-2.029-6.606 5.075-25.57 24.884-53.132 24.884-89.529l19.2-3.01c15.882 25.533 21.374 56.969 24.51 99.145Z" fill="#DDE3E9"/><path d="M156.824 78.314h-4.137c-17.237 58.737-21.989 97.873-14.256 117.408h59.919c-.948-14.295-3.988-29.414-8.152-44.155 13.57 24.471 24.977 42.088 34.22 52.852l13.952-2.732c-8.988-55.719-35.015-96.843-78.08-123.373h-3.466Z" fill="#FF4133"/></g></svg>